<svg xmlns="http://www.w3.org/2000/svg" width="1280" height="320" fill="none" aria-label="pong-ball — a minimalist physics-based paddle game for the terminal" role="img" viewBox="0 0 1280 320"><defs><linearGradient id="bg" x1="0" x2="0" y1="0" y2="320" gradientUnits="userSpaceOnUse"><stop offset="0" stop-color="#1d1b19"/><stop offset="1" stop-color="#151311"/></linearGradient><radialGradient id="glow" cx=".5" cy=".5" r=".5"><stop offset="0" stop-color="#cc785c" stop-opacity=".2"/><stop offset="1" stop-color="#cc785c" stop-opacity="0"/></radialGradient><radialGradient id="ballGlow" cx=".5" cy=".5" r=".5"><stop offset="0" stop-color="#cc785c" stop-opacity=".5"/><stop offset="1" stop-color="#cc785c" stop-opacity="0"/></radialGradient><linearGradient id="tile" x1="0" x2="0" y1="0" y2="1"><stop offset="0" stop-color="#232220"/><stop offset="1" stop-color="#191816"/></linearGradient><style>.mono{font-family:&apos;JetBrains Mono&apos;,&apos;SF Mono&apos;,ui-monospace,monospace}.sans{font-family:&apos;Inter&apos;,-apple-system,&apos;Segoe UI&apos;,Roboto,sans-serif}</style></defs><rect width="1279" height="319" x=".5" y=".5" fill="url(#bg)" stroke="#2f2d28" rx="20"/><ellipse cx="1050" cy="80" fill="url(#glow)" rx="420" ry="320"/><g transform="translate(72,56)"><rect width="60" height="60" x="0" y="0" fill="url(#tile)" stroke="#3a3833" rx="14"/><path fill="none" stroke="#cc785c" stroke-linecap="round" stroke-linejoin="round" stroke-width="2.2" d="M14 19 L27 38 Q30 42 33 38 L46 15"/><circle cx="42" cy="20" r="3.4" fill="#faf9f5"/><rect width="19" height="4.6" x="21" y="42" fill="#cc785c" rx="2.3"/></g><text x="150" y="95" fill="#ece6da" class="mono" font-size="34" font-weight="500" letter-spacing="-.5">pong-ball</text><text x="74" y="168" fill="#a09d96" class="sans" font-size="22">A minimalist, physics-based paddle game</text><text x="74" y="200" fill="#a09d96" class="sans" font-size="22">for your terminal.</text><g fill="#cbb9ad" class="mono" font-size="13"><g><rect width="158" height="30" x="74" y="226" fill="#211f1c" stroke="#34322d" rx="15"/><text x="90" y="246" fill="#a09d96">sub-stepped physics</text></g><g><rect width="124" height="30" x="242" y="226" fill="#211f1c" stroke="#34322d" rx="15"/><text x="258" y="246" fill="#a09d96">spring paddle</text></g><g><rect width="98" height="30" x="376" y="226" fill="#211f1c" stroke="#34322d" rx="15"/><text x="392" y="246" fill="#a09d96">5 themes</text></g><g><rect width="92" height="30" x="484" y="226" fill="#211f1c" stroke="#34322d" rx="15"/><text x="500" y="246" fill="#a09d96">4 modes</text></g></g><text x="74" y="290" class="mono" font-size="15"><tspan fill="#cc785c">$</tspan><tspan fill="#ece6da" dx="8">brew install pong-ball</tspan></text><g transform="translate(792,52)"><rect width="416" height="216" x="0" y="0" fill="#141312" stroke="#2c2a26" rx="14"/><circle cx="22" cy="22" r="5" fill="#cc785c"/><circle cx="40" cy="22" r="5" fill="#34322d"/><circle cx="58" cy="22" r="5" fill="#34322d"/><text x="80" y="27" fill="#6c6a64" class="mono" font-size="12">pong-ball — play</text><text x="22" y="62" fill="#a09d96" class="mono" font-size="12">SCORE <tspan fill="#cc785c" font-weight="700">128</tspan></text><text x="330" y="62" fill="#5db8a6" class="mono" font-size="12">×17</text><rect width="372" height="118" x="22" y="74" fill="none" stroke="#3a3833" stroke-dasharray="2 4" rx="8"/><path fill="none" stroke="#915541" stroke-linecap="round" stroke-width="2" d="M70 168 L150 110 Q160 103 170 110 L300 96" opacity=".7"/><circle cx="270" cy="98" r="2" fill="#915541" opacity=".5"/><circle cx="240" cy="100" r="1.8" fill="#915541" opacity=".32"/><rect width="44" height="6" x="138" y="172" fill="#cc785c" rx="3"/><circle cx="300" cy="96" r="11" fill="url(#ballGlow)"/><circle cx="300" cy="96" r="4.4" fill="#faf9f5"/></g></svg>